<svg xmlns:dc="http://purl.org/dc/elements/1.1/" xmlns:cc="http://creativecommons.org/ns#" xmlns:rdf="http://www.w3.org/1999/02/22-rdf-syntax-ns#" xmlns:svg="http://www.w3.org/2000/svg" xmlns="http://www.w3.org/2000/svg" xmlns:sodipodi="http://sodipodi.sourceforge.net/DTD/sodipodi-0.dtd" xmlns:inkscape="http://www.inkscape.org/namespaces/inkscape" width="100" height="100" viewBox="0 0 80 80" version="1.1" id="svg2" inkscape:version="0.48.2 r9819" sodipodi:docname="mayflower.svg">
  <metadata id="metadata10">
    <rdf:RDF>
      <cc:Work rdf:about="">
        <dc:format>image/svg+xml</dc:format>
        <dc:type rdf:resource="http://purl.org/dc/dcmitype/StillImage"/>
        <dc:title/>
      </cc:Work>
    </rdf:RDF>
  </metadata>
  <defs id="defs8">
    <inkscape:path-effect fuse_tolerance="0" vertical_pattern="false" prop_units="false" tang_offset="0" normal_offset="0" spacing="0" scale_y_rel="false" prop_scale="0.3" copytype="single_stretched" pattern="m 20.24371,1.3305725 0,9.9999995 10,-4.9999995 z" is_visible="true" id="path-effect4690" effect="skeletal"/>
    <inkscape:path-effect effect="skeletal" id="path-effect4686" is_visible="true" pattern="M 0,0 0,10 10,5 z" copytype="single_stretched" prop_scale="0.3" scale_y_rel="false" spacing="0" normal_offset="0" tang_offset="0" prop_units="false" vertical_pattern="false" fuse_tolerance="0"/>
    <inkscape:path-effect is_visible="true" id="path-effect5043" effect="spiro"/>
    <inkscape:path-effect is_visible="true" id="path-effect5065" effect="spiro"/>
  </defs>
  <sodipodi:namedview pagecolor="#ffffff" bordercolor="#666666" borderopacity="1" objecttolerance="10" gridtolerance="10" guidetolerance="10" inkscape:pageopacity="0" inkscape:pageshadow="2" inkscape:window-width="1600" inkscape:window-height="853" id="namedview6" showgrid="true" inkscape:zoom="5.9520215" inkscape:cx="47.048683" inkscape:cy="62.278874" inkscape:window-x="-4" inkscape:window-y="-4" inkscape:window-maximized="1" inkscape:current-layer="svg2" inkscape:snap-grids="false">
    <inkscape:grid type="xygrid" id="grid3807"/>
  </sodipodi:namedview>
  <path style="font-size:medium;font-style:normal;font-variant:normal;font-weight:normal;font-stretch:normal;text-indent:0;text-align:start;text-decoration:none;line-height:normal;letter-spacing:normal;word-spacing:normal;text-transform:none;direction:ltr;block-progression:tb;writing-mode:lr-tb;text-anchor:start;baseline-shift:baseline;color:#000000;fill:#000000;fill-opacity:1;stroke:none;stroke-width:1px;marker:none;visibility:visible;display:inline;overflow:visible;enable-background:accumulate;font-family:Sans;-inkscape-font-specification:Sans" d="m 31.3125,7.375 c -0.287589,9.163e-4 -0.552815,0.3309775 -0.5,1 l 0.96875,13.71875 -8.75,-2.34375 -0.28125,1.09375 1.875,0.53125 -9,25.25 -0.3125,0.96875 -3.75,-0.5625 c -1.250019,-0.193661 -1.247821,1.085831 -0.15625,1.15625 l 3.125,0.46875 0.84375,20.0625 -3.125,-0.03125 c 0.06921,-0.491636 0.149369,-1.054546 0.1875,-1.53125 l 0.09375,-0.5625 -0.5625,-0.0625 C 9.684485,66.154565 8.0175137,65.51017 6.9375,65 5.8574963,64.489825 5.40625,64.125 5.40625,64.125 l -1,-0.78125 0.03125,1.25 0.09375,9.46875 0,0.3125 0.28125,0.1875 c 0,0 0.8163388,0.505705 0.9375,1.25 l 0.0625,4.25 0,0.25 0.21875,0.1875 c 0,0 0.3024888,0.253441 0.5,0.78125 l 0.1875,3.5625 L 6.75,85.15625 7,85.3125 c 0,0 0.9605875,0.610531 1,1.8125 l 0.03125,0.5625 0.5625,0 57.03125,1.4375 0.5,0 0.09375,-0.5 c 0.40389,-2.506928 0.776906,-4.162922 1.625,-5.46875 0.84808,-1.305834 2.172641,-2.35277 4.65625,-3.59375 l 0.1875,-0.09375 C 72.618512,79.691007 72.575929,79.904147 72.5,80.125 l -0.1875,0.53125 0.5625,-0.09375 c 3.665579,-0.404476 9.986694,0.202216 17.15625,1.125 L 90.25,81.71875 90.40625,81.5 C 93.653914,75.934943 96.495634,70.862071 99.375,65.75 l 0.25,-0.4375 -0.5625,-0.09375 -14.28125,-1.53125 11.875,-9.28125 C 97.783039,52.645658 95.90625,53.5 95.90625,53.5 l -12.09375,9.4375 -0.75,0.46875 -9.59375,-0.96875 -0.3125,-0.03125 0,0.875 c 0.399791,2.476579 0.6486,4.910833 0.6875,7.3125 l -0.03125,-0.0625 -4.25,3.375 L 69.34375,74 l -3.625,-0.03125 -0.15625,-3.5 -0.03125,-0.5625 -0.5625,-0.03125 -3.40625,-0.09375 -0.25,-4.25 c 3.795948,0.172545 7.443593,0.951224 11,2.1875 l 1.625511,0.423553 0.0625,-0.46875 0,-0.21875 L 72.125,66.90625 71.969074,66.848399 C 64.62088,64.374714 56.941946,63.863967 48.34375,66.625 l -0.875,-18.96875 17.90625,2.5625 10.65625,1.75 -0.6086,9.362023 -0.0164,0.200477 -0.151601,1.372156 0.34375,0.03125 0.375,0.03125 L 76.09375,61.9375 76.75,52.09375 79.6875,52.5625 c 1.936659,-0.0704 0.1875,-1.15625 0.1875,-1.15625 L 61.96875,48.5 61.875,44.53125 l 2.5,-0.0625 0.375,-0.03125 0.15625,-0.28125 0.71875,-1.40625 0.25,-0.5625 -0.5625,-0.25 c -0.191201,-0.0858 -0.374956,-0.147938 -0.5625,-0.21875 4.126702,1.14869 7.864167,3.975277 11.25,8.125 0.02889,0.03546 0.03371,0.08935 0.0625,0.125 L 76.65625,49.625 76.625,49.53125 68.65625,25.6875 70.25,25.96875 70.46875,24.78125 62.6875,23.4375 62.375,14.25 c 0.198572,0.0988 0.41291,0.208079 0.75,0.34375 1.058755,0.588071 2.127271,1.354277 3.25,2.125 1.223749,0.842223 2.518931,1.686508 3.875,2.375 1.202065,0.619612 2.528476,1.13849 3.84375,1.15625 -1.252564,-0.401701 -2.260802,-1.217348 -3.1875,-2.09375 -1.029836,-0.988202 -1.930425,-2.108106 -2.84375,-3.25 -0.814765,-1.028113 -1.618545,-2.124936 -2.625,-3.1875 C 64.96795,11.00622 63.971711,10.19432 62.125,9.84375 61.801751,9.2123462 61.09375,9.2950063 61.09375,10.5625 L 61.5,23.25 l -7.65625,-1.28125 -0.1875,1.1875 1.875,0.3125 -7.84375,19.90625 -7.90625,-17.90625 1.125,0.3125 0.3125,-1.125 -8.25,-2.21875 -0.6875,-10.21875 c 1.831332,-0.598642 4.191651,-0.144543 6.59375,0.4375 2.312476,0.632521 4.927274,1.118281 7.1875,0.40625 -2.369712,0.007 -4.343009,-1.208575 -6.34375,-2.40625 C 37.535534,9.2917662 35.03705,8.04639 31.90625,7.84375 31.763546,7.5259987 31.52045,7.37434 31.3125,7.375 z m -6.0625,14.3125 7.375,1.875 6.28125,1.65625 8.15625,18.53125 -0.875,1.09375 c -4.262096,-3.989046 -8.959542,-5.730955 -14,-5.40625 C 27.28596,39.753252 22.086693,42.131724 16.625,46 z m 31.03125,1.90625 11.53125,1.96875 7.625,22.6875 c -3.53299,-3.977569 -7.445769,-6.702711 -11.875,-7.53125 -4.666689,-0.872956 -9.854214,0.380114 -15.6875,4.125 z M 33.5,40.125 c 4.485553,0.02708 8.633104,1.765841 12.5,5.5 l 0.3125,0.28125 0.21875,-0.3125 0.5625,-0.78125 L 46.8125,45.53125 46.65625,46 43.5625,45.5 l -0.21875,1.125 3.34375,0.5625 0,0.0625 0.25,5 L 34.09375,50.375 33.75,44.4375 36.40625,44.25 l 0.34375,0 0.1875,-0.28125 0.96875,-1.90625 0.375,-0.6875 -0.75,-0.1875 c -1.354014,-0.285921 -2.694133,-0.369751 -4,-0.3125 z m -1.28125,0.03125 c 0.02476,-7.32e-4 0.06896,7.32e-4 0.09375,0 l 0.03125,0.8125 c -1.238397,0.145787 -2.441104,0.4182 -3.625,0.84375 l -0.875,0.34375 0.65625,0.65625 1.6875,1.65625 0.1875,0.1875 0.3125,0 1.875,-0.125 0.3125,5.65625 -17.4375,-2.59375 0.75,-0.5625 c 5.709391,-4.201087 11.065014,-6.55508 16.03125,-6.875 z M 2,41.125 C 1.6234862,41.15475 1.4313338,41.490745 1.9375,42.25 l 2.21875,2.28125 0,0.1875 c 0.3713562,4.976875 1.0834475,9.964054 -0.03125,15.0625 0.70031,0.119038 1.3219375,0.236311 2.03125,0.34375 0.9127788,0.186671 2.1482875,0.545869 3.375,0.96875 1.226722,0.422881 2.431394,0.873575 3.3125,1.28125 1.321132,0.451932 1.677955,0.551815 2.0625,0.625 -0.009,-0.03522 0.01238,-0.347781 0,-0.375 C 14.886512,62.447044 14.831125,62.143142 14.8125,61.75 14.775275,60.963711 14.774413,59.847994 14.75,58.71875 14.701112,56.460273 14.625,53.5625 14.625,53.5625 10.865855,49.810819 6.6525713,45.39839 2.75,41.40625 2.5321325,41.18178 2.2259163,41.107151 2,41.125 z m 57.34375,0.09375 c -0.60334,0.0917 -1.206673,0.226727 -1.78125,0.375 l -0.6875,0.1875 0.28125,0.625 0.8125,1.8125 0.15625,0.34375 0.375,0 2.1875,-0.03125 0.09375,3.78125 -13.59375,-2.25 0.15625,-0.09375 c 4.392419,-2.990894 8.366953,-4.469088 12,-4.75 z m -54.125,4.71875 c 0.65298,0.659405 1.7772063,1.808471 3.625,3.65625 1.158373,1.158386 2.35472,2.310925 3.28125,3.21875 0.463285,0.453911 0.819054,0.866833 1.125,1.15625 0.152976,0.1447 0.302436,0.250708 0.40625,0.34375 0.01597,0.01416 0.04844,0.01865 0.0625,0.03125 0.0015,0.176921 0.0154,2.231514 0.0625,4.40625 0.02458,1.133054 0.08694,2.227659 0.125,3.03125 4.89e-4,0.03077 -9.77e-4,0.06385 0,0.09375 C 13.699013,61.764175 13.511811,61.65239 13.25,61.53125 12.324432,61.102999 11.09629,60.619282 9.84375,60.1875 c -1.2525387,-0.431791 -2.5148662,-0.798526 -3.5,-1 C 5.8795412,59.092588 5.4963375,58.999414 5.15625,59 5.9837725,54.467582 5.5817637,50.179341 5.21875,45.9375 z M 15.25,48.78125 18.59375,49.25 l 27.375,4.09375 0,0.03125 0.71875,0.125 0,-0.0625 L 47,53.5 l 0.6875,13.5625 -0.03125,0 0.0625,0.46875 L 49.125,67.125 c 0.0232,-0.0067 0.03935,0.0067 0.0625,0 0.487539,-0.148027 0.987002,-0.279545 1.46875,-0.40625 0.736194,-0.193623 1.463484,-0.383599 2.1875,-0.53125 l -0.15625,1.875 -0.125,2.0625 c -16.092187,-4.875723 -26.84252,-3.79006 -36.03125,-1 L 16.5625,68.75 16.125,68.71875 z m 58.59375,14.40625 24.625,2.6875 C 95.707262,70.778834 92.978637,75.614698 89.875,80.9375 83.040725,80.063401 77.083931,79.534498 73.28125,79.875 74.98347,74.564702 74.772304,68.919166 73.84375,63.1875 z M 59.1875,65.5 c 0.296211,-0.0039 0.611843,-0.0029 0.90625,0 l 0.28125,4.3125 -7.09375,1.25 -4.625,0.8125 -0.40625,0.0625 -0.09375,0.40625 -0.8125,4.625 -10.625,0.75 0.1875,-4.03125 0,-0.6875 -0.625,0.0625 -1.5,0.0625 -0.0625,-5.65625 c 5.239694,0.255769 11.163975,1.290962 18.125,3.4375 l 0.4375,0.15625 0,-0.5 0.09375,-2.875 0.125,-1.59375 C 55.437866,65.734819 57.325095,65.528117 59.1875,65.5 z M 5.625,65.59375 c 0.297525,0.185803 0.2729663,0.245135 0.8125,0.5 1.0499325,0.495965 2.755,1.008756 4.78125,1.40625 C 11.137963,68.187467 11,69.1875 11,69.1875 l -0.0625,0.6875 0.65625,0 3.625,0.03125 L 15,71.5 14.9375,72.1875 15.625,72.15625 19.59375,71.96875 19.5,72.6875 l 0,0.03125 0,0.03125 c -0.01441,0.463461 0.163712,0.89236 0.46875,1.1875 0.305034,0.29514 0.705324,0.485541 1.125,0.625 0.839364,0.278897 1.856662,0.35096 2.875,0.375 2.018033,0.04769 3.963607,-0.182823 4,-0.1875 L 28,74.75 35.6875,74.28125 35.5,78.3125 l 0,0.65625 0.625,-0.03125 11.78125,-0.8125 0.4375,-0.03125 0.0625,-0.4375 0.84375,-4.6875 11.4375,-2 3.75,0.09375 0.125,3.5 0.0625,0.5625 0.53125,0.03125 6.9375,0.09375 C 46.984575,81.633598 24.525148,82.382638 6.1875,74.25 5.9983562,74.039779 5.8505163,73.84161 5.71875,73.75 z m 25.96875,1.8125 c 0.956406,-0.008 1.962835,0.01647 2.96875,0.0625 L 33.53125,67.5 l 0.0625,5.6875 -5.6875,0.375 -0.0625,0 c 0,0 -1.959051,0.23277 -3.875,0.1875 -0.957969,-0.02259 -1.902378,-0.134775 -2.53125,-0.34375 -0.314451,-0.104487 -0.541225,-0.201185 -0.65625,-0.3125 -0.115025,-0.111312 -0.129337,-0.172181 -0.125,-0.3125 l -0.03125,0 0.21875,-1.3125 L 20.9375,70.75 20.21875,70.78125 16.25,70.9375 16.40625,69.875 c 4.540267,-1.403434 9.430496,-2.419685 15.1875,-2.46875 z M 73.875,72 c -0.01113,0.683172 -0.03377,1.404741 -0.21875,2.0625 l -0.71875,0 -1.625,0 z M 6.59375,74.78125 c 18.341278,7.922739 40.721305,7.112993 65.625,0.78125 l -0.53125,3.125 -0.03125,-0.15625 C 49.384219,82.499681 27.306168,85.829959 7,79.0625 l -0.0625,-3.34375 0,-0.03125 -0.0625,-0.03125 c -0.055125,-0.338524 -0.1583212,-0.6341 -0.28125,-0.875 z m 62.625,5.375 c -1.018862,0.717898 -1.810433,1.474456 -2.375,2.34375 -0.931308,1.433977 -1.336811,3.173389 -1.71875,5.4375 L 8.96875,86.5 C 8.6804575,85.403724 8.1627263,84.742754 7.875,84.53125 L 7.71875,81.09375 7.71875,81 7.65625,80.9375 C 7.585775,80.725954 7.51138,80.599019 7.4375,80.46875 c 19.616444,6.271483 40.661364,3.393465 61.78125,-0.3125 z" transform="scale(0.8,0.8)" id="path4021" inkscape:connector-curvature="0" sodipodi:nodetypes="ccccccccccccccccsccccccccccccccccccccscccccccccccccccccccccccccccccccccccccccccccccccccccccccccccccccccccccccccccccccccccccccccccccccscccccsccccccccccccccccccccccccccccccccccccccscccccscccccccscccccccccccccscccccccsscccccccccccccccscccccccccccccccccccccccccccccccccsccccccccccccscccccccccccccccccccccccccccccscccccccccccccccccccccccscccccccc"/>
</svg>